# xmcd
#
# Track frame offsets:
#	150
#	19732
#	37940
#	64830
#	90892
#	116505
#	141590
#	165655
#
# Disc length: 2696
#
# Revision: 5
# Processed by: cddbd v1.5.1PL0 Copyright (c) Steve Scherf et al.
# Submitted via: tcd 2.0b
# Normalized: r4:DSETVAR1,TDELIM( - )
#
DISCID=600a8608
DTITLE=Various Artist - Crusade from the North <disc 1>
DYEAR=1900
DGENRE=
TTITLE0=Dark Throne - Ravnajuv
TTITLE1=Storm - Oppi Fjellet
TTITLE2=Satyricon - Taakeslottet
TTITLE3=Storm - Oppunder Skrent Og Villmark
TTITLE4=Neptune Towers - To Cold Void Desolation
TTITLE5=Dark Throne - The Hordes Of Nebulah
TTITLE6=Satyricon - Born For Burning
TTITLE7=Wongraven - Tiden Er En Stenlagt Grav
EXTD=
EXTT0=
EXTT1=
EXTT2=
EXTT3=
EXTT4=
EXTT5=
EXTT6=
EXTT7=
PLAYORDER=
